<svg width="127" height="17" viewBox="0 0 127 17" fill="none" xmlns="http://www.w3.org/2000/svg">
<path d="M13.9084 8.72727C13.9084 4.02557 11.0391 1.25568 7.22514 1.25568C3.40412 1.25568 0.541903 4.02557 0.541903 8.72727C0.541903 13.4219 3.40412 16.1989 7.22514 16.1989C11.0391 16.1989 13.9084 13.429 13.9084 8.72727ZM11.2592 8.72727C11.2592 12.0369 9.5973 13.8338 7.22514 13.8338C4.86009 13.8338 3.19105 12.0369 3.19105 8.72727C3.19105 5.41761 4.86009 3.62074 7.22514 3.62074C9.5973 3.62074 11.2592 5.41761 11.2592 8.72727ZM23.239 11.4119C23.239 13.0739 22.0529 13.8977 20.9165 13.8977C19.6808 13.8977 18.8569 13.0241 18.8569 11.6392V5.09091H16.2859V12.0369C16.2859 14.6577 17.7773 16.142 19.9222 16.142C21.5558 16.142 22.7063 15.2827 23.2035 14.0611H23.3171V16H25.81V5.09091H23.239V11.4119ZM28.4538 16H31.0249V9.58665C31.0249 8.2017 32.0689 7.22159 33.4822 7.22159C33.9155 7.22159 34.4553 7.29972 34.6754 7.37074V5.00568C34.4411 4.96307 34.0362 4.93466 33.7521 4.93466C32.5021 4.93466 31.4581 5.64489 31.0604 6.90909H30.9467V5.09091H28.4538V16ZM41.4581 16H47.3459C50.6768 16 52.3104 14.3026 52.3104 12.0369C52.3104 9.83523 50.7479 8.54261 49.1996 8.46449V8.32244C50.62 7.98864 51.7422 6.99432 51.7422 5.22585C51.7422 3.05966 50.1797 1.45455 47.0263 1.45455H41.4581V16ZM44.093 13.7983V9.53693H46.9979C48.6243 9.53693 49.6328 10.5312 49.6328 11.831C49.6328 12.9886 48.8374 13.7983 46.9268 13.7983H44.093ZM44.093 7.64062V3.62784H46.7564C48.3047 3.62784 49.1072 4.4446 49.1072 5.56676C49.1072 6.84517 48.0703 7.64062 46.6996 7.64062H44.093ZM61.4421 11.4119C61.4421 13.0739 60.256 13.8977 59.1197 13.8977C57.8839 13.8977 57.06 13.0241 57.06 11.6392V5.09091H54.489V12.0369C54.489 14.6577 55.9805 16.142 58.1254 16.142C59.7589 16.142 60.9094 15.2827 61.4066 14.0611H61.5202V16H64.0131V5.09091H61.4421V11.4119ZM75.2791 7.97443C74.924 6.12784 73.4467 4.94886 70.8899 4.94886C68.2621 4.94886 66.4723 6.24148 66.4794 8.25852C66.4723 9.84943 67.4524 10.9006 69.5476 11.3338L71.4084 11.7244C72.4098 11.9446 72.8786 12.3494 72.8786 12.9673C72.8786 13.7131 72.0689 14.2741 70.8473 14.2741C69.6683 14.2741 68.9013 13.7628 68.6811 12.7827L66.174 13.0241C66.4936 15.027 68.1768 16.2131 70.8544 16.2131C73.5817 16.2131 75.5064 14.7997 75.5135 12.733C75.5064 11.1776 74.505 10.2259 72.4453 9.77841L70.5845 9.38068C69.4766 9.1321 69.0362 8.74858 69.0433 8.11648C69.0362 7.37784 69.853 6.86648 70.9254 6.86648C72.1115 6.86648 72.7365 7.51278 72.9354 8.23011L75.2791 7.97443ZM77.6335 16H80.2045V5.09091H77.6335V16ZM78.9261 3.54261C79.7429 3.54261 80.4105 2.91761 80.4105 2.15057C80.4105 1.37642 79.7429 0.75142 78.9261 0.75142C78.1023 0.75142 77.4347 1.37642 77.4347 2.15057C77.4347 2.91761 78.1023 3.54261 78.9261 3.54261ZM85.4194 9.60795C85.4194 8.03125 86.3711 7.12216 87.7276 7.12216C89.0558 7.12216 89.8512 7.99574 89.8512 9.4517V16H92.4222V9.05398C92.4293 6.44034 90.9379 4.94886 88.6864 4.94886C87.0529 4.94886 85.9308 5.73011 85.4336 6.9446H85.3058V5.09091H82.8484V16H85.4194V9.60795ZM99.8654 16.2131C102.408 16.2131 104.155 14.9702 104.61 13.0739L102.209 12.804C101.861 13.7273 101.009 14.2102 99.9009 14.2102C98.239 14.2102 97.1381 13.1165 97.1168 11.2486H104.716V10.4602C104.716 6.6321 102.415 4.94886 99.7305 4.94886C96.6055 4.94886 94.5671 7.2429 94.5671 10.6094C94.5671 14.0327 96.5771 16.2131 99.8654 16.2131ZM97.1239 9.51562C97.2021 8.12358 98.2319 6.9517 99.766 6.9517C101.243 6.9517 102.238 8.03125 102.252 9.51562H97.1239ZM115.513 7.97443C115.158 6.12784 113.681 4.94886 111.124 4.94886C108.496 4.94886 106.707 6.24148 106.714 8.25852C106.707 9.84943 107.687 10.9006 109.782 11.3338L111.643 11.7244C112.644 11.9446 113.113 12.3494 113.113 12.9673C113.113 13.7131 112.303 14.2741 111.082 14.2741C109.903 14.2741 109.136 13.7628 108.915 12.7827L106.408 13.0241C106.728 15.027 108.411 16.2131 111.089 16.2131C113.816 16.2131 115.741 14.7997 115.748 12.733C115.741 11.1776 114.739 10.2259 112.68 9.77841L110.819 9.38068C109.711 9.1321 109.271 8.74858 109.278 8.11648C109.271 7.37784 110.087 6.86648 111.16 6.86648C112.346 6.86648 112.971 7.51278 113.17 8.23011L115.513 7.97443ZM126.49 7.97443C126.135 6.12784 124.658 4.94886 122.101 4.94886C119.473 4.94886 117.683 6.24148 117.69 8.25852C117.683 9.84943 118.663 10.9006 120.759 11.3338L122.619 11.7244C123.621 11.9446 124.089 12.3494 124.089 12.9673C124.089 13.7131 123.28 14.2741 122.058 14.2741C120.879 14.2741 120.112 13.7628 119.892 12.7827L117.385 13.0241C117.705 15.027 119.388 16.2131 122.065 16.2131C124.793 16.2131 126.717 14.7997 126.724 12.733C126.717 11.1776 125.716 10.2259 123.656 9.77841L121.795 9.38068C120.688 9.1321 120.247 8.74858 120.254 8.11648C120.247 7.37784 121.064 6.86648 122.136 6.86648C123.322 6.86648 123.947 7.51278 124.146 8.23011L126.49 7.97443Z" fill="white"/>
</svg>
